HIERARCHY
ROOT Hips
{
	OFFSET 0.000000 97.167313 0.000000
	CHANNELS 6 Xposition Yposition Zposition Xrotation Yrotation Zrotation
	JOINT Spine
	{
		OFFSET 0.000000 13.784798 0.064400
		CHANNELS 3 Xrotation Yrotation Zrotation
		JOINT Spine1
		{
			OFFSET 0.000000 12.037903 0.404700
			CHANNELS 3 Xrotation Yrotation Zrotation
			JOINT Spine2
			{
				OFFSET 0.000000 17.795601 0.420200
				CHANNELS 3 Xrotation Yrotation Zrotation
				JOINT Neck
				{
					OFFSET 0.000000 39.131302 11.954600
					CHANNELS 3 Xrotation Yrotation Zrotation
					JOINT Head
					{
						OFFSET 0.000000 14.456192 15.627699
						CHANNELS 3 Xrotation Yrotation Zrotation
						JOINT HeadTop_End
						{
							OFFSET 0.000000 15.703506 7.603401
							CHANNELS 3 Xrotation Yrotation Zrotation
							End Site
							{
								OFFSET 0.000000 17.447403 0.000000
							}
						}
					}
				}
				JOINT LeftShoulder
				{
					OFFSET 17.399500 24.608795 1.168800
					CHANNELS 3 Xrotation Yrotation Zrotation
					JOINT LeftArm
					{
						OFFSET 18.980635 5.765305 1.818600
						CHANNELS 3 Xrotation Yrotation Zrotation
						JOINT LeftForeArm
						{
							OFFSET 49.290169 0.000000 0.000000
							CHANNELS 3 Xrotation Yrotation Zrotation
							JOINT LeftHand
							{
								OFFSET 31.562012 0.000000 0.000000
								CHANNELS 3 Xrotation Yrotation Zrotation
								JOINT LeftHandThumb1
								{
									OFFSET 6.133995 -4.388519 7.076070
									CHANNELS 3 Xrotation Yrotation Zrotation
									JOINT LeftHandThumb2
									{
										OFFSET 6.037666 -3.485840 3.485847
										CHANNELS 3 Xrotation Yrotation Zrotation
										JOINT LeftHandThumb3
										{
											OFFSET 6.496506 -3.750763 3.750761
											CHANNELS 3 Xrotation Yrotation Zrotation
											JOINT LeftHandThumb4
											{
												OFFSET 5.616882 -3.242905 3.242910
												CHANNELS 3 Xrotation Yrotation Zrotation
												End Site
												{
													OFFSET -1.254608 7.132141 0.375429
												}
											}
										}
									}
								}
								JOINT LeftHandPinky1
								{
									OFFSET 18.920792 -0.453171 -11.426712
									CHANNELS 3 Xrotation Yrotation Zrotation
									JOINT LeftHandPinky2
									{
										OFFSET 4.919586 0.000000 0.000000
										CHANNELS 3 Xrotation Yrotation Zrotation
										JOINT LeftHandPinky3
										{
											OFFSET 5.233047 0.000000 0.000000
											CHANNELS 3 Xrotation Yrotation Zrotation
											JOINT LeftHandPinky4
											{
												OFFSET 5.571716 0.000000 0.000000
												CHANNELS 3 Xrotation Yrotation Zrotation
												End Site
												{
													OFFSET -3.459808 4.342407 -0.466164
												}
											}
										}
									}
								}
								JOINT LeftHandRing1
								{
									OFFSET 22.726120 -0.094986 -6.500475
									CHANNELS 3 Xrotation Yrotation Zrotation
									JOINT LeftHandRing2
									{
										OFFSET 6.408615 0.000000 0.000000
										CHANNELS 3 Xrotation Yrotation Zrotation
										JOINT LeftHandRing3
										{
											OFFSET 6.150223 0.000000 0.000000
											CHANNELS 3 Xrotation Yrotation Zrotation
											JOINT LeftHandRing4
											{
												OFFSET 6.145386 0.000000 0.000000
												CHANNELS 3 Xrotation Yrotation Zrotation
												End Site
												{
													OFFSET -3.671402 4.923981 -0.202372
												}
											}
										}
									}
								}
								JOINT LeftHandMiddle1
								{
									OFFSET 23.373947 0.000000 0.000001
									CHANNELS 3 Xrotation Yrotation Zrotation
									JOINT LeftHandMiddle2
									{
										OFFSET 6.996567 0.000000 0.000000
										CHANNELS 3 Xrotation Yrotation Zrotation
										JOINT LeftHandMiddle3
										{
											OFFSET 7.015945 0.000000 0.000000
											CHANNELS 3 Xrotation Yrotation Zrotation
											JOINT LeftHandMiddle4
											{
												OFFSET 7.721573 0.000000 0.000000
												CHANNELS 3 Xrotation Yrotation Zrotation
												End Site
												{
													OFFSET -4.651108 6.158463 0.251582
												}
											}
										}
									}
								}
								JOINT LeftHandIndex1
								{
									OFFSET 21.310577 -0.490082 6.209344
									CHANNELS 3 Xrotation Yrotation Zrotation
									JOINT LeftHandIndex2
									{
										OFFSET 7.536453 0.000000 0.000000
										CHANNELS 3 Xrotation Yrotation Zrotation
										JOINT LeftHandIndex3
										{
											OFFSET 7.512344 0.000000 0.000000
											CHANNELS 3 Xrotation Yrotation Zrotation
											JOINT LeftHandIndex4
											{
												OFFSET 10.212402 0.000000 0.000001
												CHANNELS 3 Xrotation Yrotation Zrotation
												End Site
												{
													OFFSET -5.180801 8.690506 1.388433
												}
											}
										}
									}
								}
							}
						}
					}
				}
				JOINT RightShoulder
				{
					OFFSET -17.399500 24.608795 1.168800
					CHANNELS 3 Xrotation Yrotation Zrotation
					JOINT RightArm
					{
						OFFSET -18.980635 5.765305 1.818600
						CHANNELS 3 Xrotation Yrotation Zrotation
						JOINT RightForeArm
						{
							OFFSET -49.290169 0.000000 0.000000
							CHANNELS 3 Xrotation Yrotation Zrotation
							JOINT RightHand
							{
								OFFSET -31.562012 0.000000 0.000000
								CHANNELS 3 Xrotation Yrotation Zrotation
								JOINT RightHandThumb1
								{
									OFFSET -6.133995 -4.388519 7.076070
									CHANNELS 3 Xrotation Yrotation Zrotation
									JOINT RightHandThumb2
									{
										OFFSET -6.037666 -3.485840 3.485847
										CHANNELS 3 Xrotation Yrotation Zrotation
										JOINT RightHandThumb3
										{
											OFFSET -6.496506 -3.750763 3.750761
											CHANNELS 3 Xrotation Yrotation Zrotation
											JOINT RightHandThumb4
											{
												OFFSET -5.616882 -3.242905 3.242910
												CHANNELS 3 Xrotation Yrotation Zrotation
												End Site
												{
													OFFSET 1.254608 7.132141 0.375429
												}
											}
										}
									}
								}
								JOINT RightHandIndex1
								{
									OFFSET -21.310577 -0.490082 6.209344
									CHANNELS 3 Xrotation Yrotation Zrotation
									JOINT RightHandIndex2
									{
										OFFSET -7.536453 0.000000 0.000000
										CHANNELS 3 Xrotation Yrotation Zrotation
										JOINT RightHandIndex3
										{
											OFFSET -7.512344 0.000000 0.000000
											CHANNELS 3 Xrotation Yrotation Zrotation
											JOINT RightHandIndex4
											{
												OFFSET -10.212402 0.000000 0.000001
												CHANNELS 3 Xrotation Yrotation Zrotation
												End Site
												{
													OFFSET 5.180801 8.690506 1.388433
												}
											}
										}
									}
								}
								JOINT RightHandMiddle1
								{
									OFFSET -23.373947 0.000000 0.000001
									CHANNELS 3 Xrotation Yrotation Zrotation
									JOINT RightHandMiddle2
									{
										OFFSET -6.996567 0.000000 0.000000
										CHANNELS 3 Xrotation Yrotation Zrotation
										JOINT RightHandMiddle3
										{
											OFFSET -7.015945 0.000000 0.000000
											CHANNELS 3 Xrotation Yrotation Zrotation
											JOINT RightHandMiddle4
											{
												OFFSET -7.721573 0.000000 0.000000
												CHANNELS 3 Xrotation Yrotation Zrotation
												End Site
												{
													OFFSET 4.651108 6.158463 0.251582
												}
											}
										}
									}
								}
								JOINT RightHandRing1
								{
									OFFSET -22.726120 -0.094986 -6.500475
									CHANNELS 3 Xrotation Yrotation Zrotation
									JOINT RightHandRing2
									{
										OFFSET -6.408615 0.000000 0.000000
										CHANNELS 3 Xrotation Yrotation Zrotation
										JOINT RightHandRing3
										{
											OFFSET -6.150223 0.000000 0.000000
											CHANNELS 3 Xrotation Yrotation Zrotation
											JOINT RightHandRing4
											{
												OFFSET -6.145386 0.000000 0.000000
												CHANNELS 3 Xrotation Yrotation Zrotation
												End Site
												{
													OFFSET 3.671402 4.923981 -0.202372
												}
											}
										}
									}
								}
								JOINT RightHandPinky1
								{
									OFFSET -18.920792 -0.453171 -11.426712
									CHANNELS 3 Xrotation Yrotation Zrotation
									JOINT RightHandPinky2
									{
										OFFSET -4.919586 0.000000 0.000000
										CHANNELS 3 Xrotation Yrotation Zrotation
										JOINT RightHandPinky3
										{
											OFFSET -5.233047 0.000000 0.000000
											CHANNELS 3 Xrotation Yrotation Zrotation
											JOINT RightHandPinky4
											{
												OFFSET -5.571716 0.000000 0.000000
												CHANNELS 3 Xrotation Yrotation Zrotation
												End Site
												{
													OFFSET 3.459808 4.342407 -0.466164
												}
											}
										}
									}
								}
							}
						}
					}
				}
			}
		}
	}
	JOINT LeftUpLeg
	{
		OFFSET 19.899099 -7.885101 -3.429500
		CHANNELS 3 Xrotation Yrotation Zrotation
		JOINT LeftLeg
		{
			OFFSET 1.745560 -36.997807 10.304700
			CHANNELS 3 Xrotation Yrotation Zrotation
			JOINT LeftFoot
			{
				OFFSET -1.745558 -29.803308 -13.615400
				CHANNELS 3 Xrotation Yrotation Zrotation
				JOINT LeftToeBase
				{
					OFFSET 1.181900 -18.539904 15.226099
					CHANNELS 3 Xrotation Yrotation Zrotation
					JOINT LeftToe_End
					{
						OFFSET -0.863701 1.402801 16.534700
						CHANNELS 3 Xrotation Yrotation Zrotation
						End Site
						{
							OFFSET 0.000000 16.616566 0.000000
						}
					}
				}
			}
		}
	}
	JOINT RightUpLeg
	{
		OFFSET -19.899099 -7.885101 -3.429500
		CHANNELS 3 Xrotation Yrotation Zrotation
		JOINT RightLeg
		{
			OFFSET -1.745560 -36.997807 10.304700
			CHANNELS 3 Xrotation Yrotation Zrotation
			JOINT RightFoot
			{
				OFFSET 1.745558 -29.803308 -13.615400
				CHANNELS 3 Xrotation Yrotation Zrotation
				JOINT RightToeBase
				{
					OFFSET -1.181900 -18.539904 15.226099
					CHANNELS 3 Xrotation Yrotation Zrotation
					JOINT RightToe_End
					{
						OFFSET 0.863701 1.402801 16.534700
						CHANNELS 3 Xrotation Yrotation Zrotation
						End Site
						{
							OFFSET 0.000000 16.616566 0.000000
						}
					}
				}
			}
		}
	}
}
MOTION
Frames: 5
Frame Time: 0.033333
-10.890735 85.563293 52.581657 -1.126982 -1.928352 -7.101235 11.358312 -3.401836 -2.985732 -0.152364 -0.583927 -1.630306 -0.140508 -0.505648 -1.657193 8.486442 -3.291661 -1.044115 -11.185219 4.723127 2.448782 -0.000000 0.000000 0.000001 0.627061 -5.736952 0.603732 -29.391431 7.980778 -16.390330 -25.404451 -12.220547 -3.466004 2.476260 -8.663962 -5.281094 4.766521 -0.870674 -14.442459 15.732330 12.674832 8.828568 63.207049 -8.275011 4.266027 0.000002 -0.000000 -0.000002 -8.868657 8.263628 -85.753886 -0.047920 -0.066879 -74.105667 -0.018480 -0.051636 -48.548783 -0.000003 -0.000003 -0.000006 -4.480779 3.914195 -90.412505 -1.097233 -0.675671 -62.310730 -0.104332 1.185552 -72.505873 0.000001 0.000000 0.000002 -5.483659 2.419533 -86.651024 -0.068350 -4.897295 -76.605510 1.509521 0.538135 -67.243281 -0.000000 -0.000001 -0.000001 -3.610972 -7.817626 -81.262674 0.005165 -4.388524 -67.459094 1.852065 0.687172 -69.585837 -0.000004 -0.000000 -0.000001 1.587237 2.975551 -26.879962 -34.347416 -20.426856 0.619927 -17.488621 1.642984 4.150605 -4.375987 -42.686845 -19.573237 24.918369 -21.323352 30.343044 9.041915 8.262092 -18.001793 -16.109831 -19.128881 -12.401653 -0.000001 0.000000 0.000001 -0.070710 -3.035209 61.424233 0.006478 4.395150 66.609186 1.919192 -0.429153 59.456660 -0.000002 -0.000003 0.000001 -1.235395 -0.119460 68.274270 -0.077309 4.902836 84.501912 0.918971 -1.334283 32.710271 -0.000002 0.000000 -0.000004 0.883180 -4.613482 79.192963 -0.717763 1.136486 73.255773 -0.065391 -1.198565 39.144388 0.000001 -0.000000 0.000000 -3.944553 0.100006 86.764788 -0.029800 0.060129 54.415144 -0.007570 0.030582 25.829842 -0.000000 -0.000001 -0.000003 -19.725593 23.936033 31.491909 37.559760 -4.524722 3.567139 -20.365553 7.140830 -17.213648 -2.602196 -4.874370 4.787243 -0.000000 0.000001 0.000000 -38.293882 -1.837384 -1.381444 28.199416 5.205353 5.006329 26.469080 -0.445358 -1.918469 -13.050394 -0.663671 5.161416 -0.000000 0.000000 -0.000000 
-10.470220 86.411797 49.442581 -0.833901 -8.727742 -6.685623 11.790524 -3.669387 -1.873970 -0.376851 -0.736967 -1.391874 -0.365555 -0.672303 -1.403298 6.516140 -2.335652 -0.842333 -10.731862 10.478910 0.864902 0.000000 0.000000 0.000001 0.630736 -4.484426 6.215211 -28.699178 4.387534 -16.228760 -34.301596 -17.093783 -9.243875 2.962203 -9.406631 -7.060957 4.766516 -0.870672 -14.442464 15.732332 12.674832 8.828573 63.207056 -8.275013 4.266029 0.000000 -0.000000 -0.000001 -8.868655 8.263631 -85.753886 -0.047920 -0.066880 -74.105661 -0.018483 -0.051629 -48.548783 0.000002 -0.000002 -0.000001 -4.480778 3.914198 -90.412505 -1.097231 -0.675679 -62.310737 -0.104339 1.185551 -72.505880 -0.000002 -0.000001 0.000003 -5.483659 2.419533 -86.651024 -0.068352 -4.897293 -76.605517 1.509521 0.538136 -67.243281 -0.000000 -0.000002 0.000001 -3.610969 -7.817627 -81.262681 0.005166 -4.388522 -67.459094 1.852067 0.687179 -69.585837 -0.000004 0.000001 0.000001 0.629107 0.517722 -29.061929 -35.543184 -20.645881 1.152915 -32.961021 2.079885 5.410417 -4.038765 -37.367996 -22.366073 24.918366 -21.323359 30.343044 9.041914 8.262096 -18.001804 -16.109834 -19.128882 -12.401655 0.000002 -0.000002 0.000001 -0.070711 -3.035203 61.424226 0.006477 4.395155 66.609186 1.919193 -0.429153 59.456660 -0.000001 -0.000001 -0.000001 -1.235396 -0.119457 68.274264 -0.077309 4.902836 84.501912 0.918973 -1.334282 32.710268 0.000001 0.000001 -0.000008 0.883176 -4.613481 79.192963 -0.717763 1.136485 73.255773 -0.065385 -1.198567 39.144388 -0.000003 -0.000000 -0.000003 -3.944557 0.100007 86.764795 -0.029798 0.060126 54.415147 -0.007570 0.030584 25.829846 -0.000000 0.000002 -0.000003 -19.867581 29.036350 29.378409 37.859278 -3.031000 4.864005 -26.779556 7.062000 -15.678672 -1.647691 -7.611421 7.209973 0.000000 -0.000001 0.000002 -36.893407 0.517461 -1.067118 32.570659 1.305606 5.104965 21.711599 -0.919814 -1.606478 -11.599986 0.505861 4.519274 -0.000001 -0.000001 0.000000 
-9.709941 86.917931 45.150200 -1.032735 -17.342149 -5.826918 12.880770 -2.619439 -1.334805 -0.442634 -0.507623 -1.154665 -0.435751 -0.459973 -1.162454 3.679247 -0.799972 -1.699753 -9.141242 15.249104 -0.402690 0.000000 -0.000000 0.000001 0.865283 -4.836375 15.170516 -27.495582 4.138005 -18.158850 -42.099169 -22.464798 -19.235382 3.707487 -16.413950 -8.224624 4.766518 -0.870675 -14.442462 15.732333 12.674826 8.828575 63.207049 -8.275009 4.266027 0.000000 0.000001 -0.000001 -8.868657 8.263633 -85.753886 -0.047916 -0.066879 -74.105661 -0.018481 -0.051632 -48.548783 0.000003 0.000002 0.000001 -4.480776 3.914194 -90.412505 -1.097231 -0.675678 -62.310737 -0.104339 1.185551 -72.505880 -0.000002 -0.000000 0.000005 -5.483659 2.419532 -86.651024 -0.068350 -4.897296 -76.605510 1.509523 0.538136 -67.243281 -0.000002 -0.000002 0.000004 -3.610968 -7.817631 -81.262681 0.005162 -4.388528 -67.459094 1.852067 0.687176 -69.585837 -0.000001 0.000001 0.000003 -0.674207 -2.021659 -31.563120 -36.865120 -20.833602 3.660058 -45.839817 5.999744 10.454867 -3.823863 -34.131265 -22.577604 24.918364 -21.323354 30.343040 9.041921 8.262089 -18.001800 -16.109836 -19.128882 -12.401645 -0.000003 -0.000001 0.000002 -0.070705 -3.035204 61.424233 0.006474 4.395151 66.609180 1.919192 -0.429149 59.456667 -0.000000 0.000000 -0.000001 -1.235396 -0.119461 68.274270 -0.077309 4.902838 84.501919 0.918975 -1.334282 32.710268 0.000001 0.000000 -0.000001 0.883180 -4.613483 79.192963 -0.717764 1.136486 73.255773 -0.065388 -1.198567 39.144384 0.000000 -0.000000 -0.000003 -3.944552 0.100009 86.764788 -0.029797 0.060130 54.415147 -0.007569 0.030584 25.829851 0.000001 -0.000001 0.000000 -19.787408 32.300152 27.712687 37.303918 -5.396591 4.368329 -30.516476 6.153016 -12.440470 -1.374615 -6.067109 6.314216 -0.000000 0.000001 0.000000 -34.876732 -0.611234 -2.492539 39.982476 0.763442 3.188468 12.625906 -1.173196 0.814318 -7.021406 1.796052 3.062761 -0.000000 -0.000002 0.000000 
-8.901442 86.334732 40.619610 -0.796990 -24.276272 -4.644455 13.332263 -1.573575 -1.284959 -0.507850 -0.262556 -1.044882 -0.504148 -0.218062 -1.051503 2.152594 0.366278 -2.042834 -7.907577 18.476468 -1.509595 0.000001 0.000000 -0.000000 1.020563 -5.352611 18.454017 -30.452682 5.649970 -18.082188 -51.735456 -27.519379 -34.789842 3.010595 -13.443699 -8.409239 4.766515 -0.870674 -14.442462 15.732335 12.674831 8.828576 63.207056 -8.275009 4.266028 0.000002 0.000001 -0.000001 -8.868656 8.263628 -85.753886 -0.047919 -0.066874 -74.105661 -0.018484 -0.051632 -48.548783 -0.000001 0.000001 -0.000007 -4.480778 3.914195 -90.412505 -1.097232 -0.675674 -62.310737 -0.104338 1.185551 -72.505873 -0.000002 0.000000 0.000003 -5.483663 2.419534 -86.651024 -0.068351 -4.897290 -76.605510 1.509521 0.538136 -67.243281 0.000002 -0.000000 0.000001 -3.610976 -7.817631 -81.262681 0.005159 -4.388525 -67.459101 1.852063 0.687186 -69.585837 -0.000004 0.000003 -0.000003 -2.197688 -4.245673 -34.011094 -37.605365 -21.676080 6.923624 -58.089113 9.101054 19.119796 -2.630977 -30.695119 -21.707250 24.918366 -21.323357 30.343040 9.041916 8.262094 -18.001797 -16.109836 -19.128879 -12.401641 0.000000 0.000000 -0.000000 -0.070706 -3.035208 61.424233 0.006474 4.395152 66.609186 1.919196 -0.429147 59.456667 -0.000000 -0.000003 -0.000002 -1.235396 -0.119460 68.274270 -0.077309 4.902834 84.501912 0.918975 -1.334282 32.710268 0.000000 0.000001 -0.000009 0.883178 -4.613483 79.192956 -0.717763 1.136486 73.255773 -0.065389 -1.198568 39.144388 0.000001 0.000001 -0.000005 -3.944557 0.100008 86.764788 -0.029798 0.060131 54.415144 -0.007570 0.030585 25.829842 -0.000000 -0.000001 0.000004 -21.047062 30.633778 26.472816 38.523001 -8.430582 2.954795 -31.412904 5.824196 -9.459222 -1.386869 -3.462169 3.720886 -0.000001 0.000000 0.000001 -31.728957 3.105428 -6.691590 50.298462 -3.456257 1.402861 0.459288 -2.165867 9.894884 -0.734560 2.804731 -0.817517 -0.000002 -0.000002 0.000000 
-8.091949 85.076660 36.036530 -0.046743 -29.485722 -3.432671 13.115797 -0.858962 -1.190453 -0.542154 -0.117054 -0.958665 -0.539710 -0.065591 -0.965633 1.117637 1.315342 -1.746220 -6.824876 20.578137 -2.680993 0.000001 -0.000001 -0.000000 1.015260 -5.558086 19.231467 -34.769898 5.338615 -19.495609 -60.412381 -29.554474 -50.373905 1.808919 -6.879093 -7.795416 4.766518 -0.870677 -14.442462 15.732330 12.674827 8.828573 63.207056 -8.275011 4.266028 -0.000000 0.000004 -0.000002 -8.868656 8.263631 -85.753886 -0.047920 -0.066876 -74.105667 -0.018483 -0.051634 -48.548780 0.000000 0.000003 -0.000004 -4.480777 3.914197 -90.412505 -1.097229 -0.675677 -62.310730 -0.104338 1.185551 -72.505873 -0.000001 -0.000001 0.000005 -5.483662 2.419535 -86.651031 -0.068352 -4.897291 -76.605510 1.509520 0.538136 -67.243281 -0.000001 -0.000000 0.000001 -3.610970 -7.817629 -81.262681 0.005159 -4.388522 -67.459101 1.852067 0.687176 -69.585837 -0.000001 0.000003 0.000004 -3.766310 -5.737554 -36.021253 -36.782748 -23.923275 11.152138 -68.947597 10.739913 32.138396 -0.629948 -26.051185 -20.589984 24.918361 -21.323355 30.343040 9.041920 8.262085 -18.001795 -16.109834 -19.128881 -12.401651 0.000002 0.000000 -0.000000 -0.070707 -3.035206 61.424226 0.006478 4.395150 66.609180 1.919191 -0.429147 59.456667 -0.000002 -0.000003 0.000008 -1.235396 -0.119458 68.274264 -0.077308 4.902835 84.501912 0.918974 -1.334282 32.710268 -0.000001 0.000000 -0.000008 0.883178 -4.613482 79.192963 -0.717762 1.136486 73.255766 -0.065387 -1.198569 39.144388 -0.000000 -0.000001 -0.000002 -3.944553 0.100008 86.764788 -0.029800 0.060128 54.415151 -0.007567 0.030585 25.829844 -0.000000 -0.000002 -0.000005 -27.891609 31.299636 28.046917 41.566892 -14.601382 2.629947 -28.513526 4.675272 -5.715855 -1.668426 -2.202800 2.435549 0.000002 -0.000000 0.000000 -25.096027 9.053025 -13.027288 57.011244 -8.656707 1.691011 -6.327923 -4.952235 21.957310 3.071614 3.667016 -1.769623 -0.000001 -0.000000 -0.000001 
